<?xml version="1.0" standalone="no"?>
<!DOCTYPE svg PUBLIC "-//W3C//DTD SVG 20010904//EN"
 "http://www.w3.org/TR/2001/REC-SVG-20010904/DTD/svg10.dtd">
<svg version="1.0" xmlns="http://www.w3.org/2000/svg"
 width="175.000000pt" height="86.000000pt" viewBox="0 0 175.000000 86.000000"
 preserveAspectRatio="xMidYMid meet">
<metadata>
Created by potrace 1.16, written by Peter Selinger 2001-2019
</metadata>
<g transform="translate(0.000000,86.000000) scale(0.100000,-0.100000)"
fill="#000000" stroke="none">
<path d="M0 305 l0 -115 30 0 c29 0 30 2 30 45 l0 44 93 3 92 3 3 59 c2 41 -1
62 -10 67 -7 5 -64 9 -125 9 l-113 0 0 -115z"/>
<path d="M333 308 c-60 -107 -62 -113 -41 -116 15 -3 29 5 43 22 19 23 28 26
87 26 60 0 68 -3 85 -26 14 -19 26 -25 46 -22 l26 3 -63 110 c-56 96 -67 110
-92 113 -27 2 -33 -4 -91 -110z"/>
<path d="M618 373 c22 -27 49 -57 61 -67 16 -14 21 -31 21 -68 0 -45 2 -48 25
-48 23 0 25 3 25 52 0 51 2 54 62 115 l62 63 -36 0 c-31 0 -42 -7 -72 -42
l-35 -43 -43 43 c-34 32 -51 42 -77 42 l-33 0 40 -47z"/>
</g>
</svg>
